<?xml version="1.0" encoding="utf-8"?>
<!-- Generator: Adobe Illustrator 27.5.0, SVG Export Plug-In . SVG Version: 6.00 Build 0)  -->
<svg version="1.1" id="Capa_1" xmlns="http://www.w3.org/2000/svg" xmlns:xlink="http://www.w3.org/1999/xlink" x="0px" y="0px"
	 viewBox="0 0 2122 2122" style="enable-background:new 0 0 2122 2122;" xml:space="preserve">
<path style="fill:#E61F45;" d="M1567.859,534.472c-63.24-9.267-124.75-30.707-188.609-33.269
	c-20.841-0.836-39.923,1.054-57.578,5.224c11.875-59.018,15.589-118.518,0.755-176.498
	c-25.013-97.779-101.257-176.894-190.606-223.834c33.822,54.231,26.845,124.714,6.86,185.422
	c-18.512,56.216-47.019,109.19-61.852,166.327c-14.56-19.634-33.553-37.244-58.256-52.385
	c-54.489-33.398-117.53-49.807-175.235-77.288c-57.7-27.481-113.486-71.123-129.34-133.038
	c-27.776,97.03-23.23,206.808,30.193,292.438c36.706,58.84,92.114,101.051,152.771,136.221
	c-147.18,20.201-273.064,104.984-336.362,250.19c-67.186,154.092-67.313,335.87-35.844,498.528
	c1.708,8.839,3.581,17.655,5.543,26.457c0.206,0.924,0.402,1.85,0.61,2.774c1.896,8.398,3.908,16.779,6.002,25.148
	c0.319,1.275,0.637,2.55,0.96,3.825c0.426,1.681,0.833,3.366,1.267,5.047c1.846,7.167,3.756,14.316,5.724,21.452
	c0.246,0.892,0.519,1.777,0.766,2.667c2.722,9.821,5.548,19.62,8.447,29.402c0.458,1.542,0.921,3.081,1.386,4.621
	c0.541,1.784,1.082,3.568,1.621,5.353c2.295,7.602,4.615,15.194,6.983,22.773c1.096,3.507,2.192,7.013,3.301,10.516
	c2.493,7.884,5.006,15.757,7.542,23.619c0.926,2.871,1.843,5.742,2.772,8.611c3.304,10.195,6.621,20.376,9.934,30.535
	c3.912,12.058,7.829,24.076,11.683,36.088c10.616,33.084,21.822,66.18,34.499,98.667c20.916,53.693,45.788,105.746,78.358,153.403
	c28.219,41.293,66.373,77.422,113.349,94.55c96.516,35.155,172.657-32.024,232.039-99.783
	c98.002-111.876,197.685-223.072,294.051-337.057c76.979-91.064,144.482-193.529,170.709-303.936
	c18.631-78.441,16.443-160.865-17.992-246.036c-4.843-11.995-10.144-23.849-15.849-35.51
	c-39.262-80.23-98.348-152.196-169.503-208.795c83.21,8.709,167.356,9.064,242.604-24.81
	c92.029-41.432,156.882-130.124,187.785-226.205C1701.73,538.513,1631.094,543.741,1567.859,534.472z"/>
<path style="fill:#70912C;" d="M1567.859,534.472c-63.24-9.267-124.75-30.707-188.609-33.269
	c-20.841-0.836-39.923,1.054-57.578,5.224c11.875-59.018,15.589-118.518,0.755-176.498
	c-25.013-97.779-101.257-176.894-190.606-223.834c33.822,54.231,26.845,124.714,6.86,185.422
	c-18.512,56.216-47.019,109.19-61.852,166.327c-14.56-19.634-33.553-37.244-58.256-52.385
	c-54.489-33.398-117.53-49.807-175.235-77.288c-57.7-27.481-113.486-71.123-129.34-133.038
	c-27.776,97.03-23.23,206.808,30.193,292.438c36.706,58.84,92.114,101.051,152.771,136.221c39.37-5.404,80.248-6.238,121.88-2.309
	c5.666,0.535,11.319,1.177,16.962,1.905c1.955,0.252,3.9,0.569,5.851,0.844c3.7,0.522,7.4,1.041,11.087,1.644
	c2.185,0.357,4.359,0.773,6.538,1.159c3.487,0.617,6.973,1.234,10.447,1.922c2.077,0.413,4.146,0.869,6.218,1.307
	c3.651,0.77,7.299,1.556,10.935,2.404c0.623,0.146,1.25,0.263,1.871,0.411c1.092,0.258,2.17,0.57,3.258,0.835
	c4.252,1.036,8.493,2.116,12.721,3.257c1.827,0.493,3.652,0.996,5.474,1.509c3.623,1.019,7.234,2.076,10.838,3.17
	c0.886,0.269,1.771,0.546,2.656,0.819c0.794,0.247,1.598,0.457,2.392,0.707c0.422,0.132,0.837,0.285,1.257,0.419
	c4.882,1.547,9.743,3.168,14.584,4.851c1.021,0.354,2.048,0.686,3.066,1.047c3.717,1.316,7.412,2.703,11.105,4.098
	c7.676,2.901,15.307,5.935,22.866,9.168c1.856,0.794,3.694,1.634,5.543,2.447c3.635,1.6,7.264,3.215,10.868,4.891
	c2.201,1.022,4.386,2.076,6.574,3.126c3.26,1.565,6.51,3.15,9.744,4.775c2.251,1.13,4.495,2.275,6.733,3.435
	c3.208,1.663,6.397,3.363,9.578,5.085c2.146,1.162,4.295,2.318,6.429,3.506c3.447,1.92,6.865,3.895,10.278,5.884
	c1.797,1.048,3.609,2.071,5.398,3.138c5.169,3.084,10.304,6.229,15.386,9.466c18.458,11.759,36.3,24.539,53.459,38.189
	c83.21,8.709,167.356,9.064,242.604-24.81c92.029-41.432,156.882-130.124,187.785-226.205
	C1701.73,538.513,1631.094,543.741,1567.859,534.472z"/>
<path style="fill:#8CB63D;" d="M1567.859,534.472c-63.24-9.267-124.75-30.707-188.609-33.269
	c-20.841-0.836-39.923,1.054-57.578,5.224c-66.866,15.794-112.992,64.733-154.11,126.208c-4.432,6.629-8.564,13.725-11.459,21.155
	c7.676,2.901,15.307,5.935,22.866,9.168c1.856,0.794,3.694,1.634,5.543,2.447c3.635,1.6,7.264,3.215,10.868,4.891
	c2.201,1.022,4.386,2.076,6.574,3.126c3.26,1.565,6.51,3.15,9.744,4.775c2.251,1.13,4.495,2.275,6.733,3.435
	c3.208,1.663,6.397,3.363,9.578,5.085c2.146,1.162,4.295,2.318,6.429,3.506c3.447,1.92,6.865,3.895,10.278,5.884
	c1.797,1.048,3.609,2.071,5.398,3.138c5.169,3.084,10.304,6.229,15.386,9.466c18.458,11.759,36.3,24.539,53.459,38.189
	c83.21,8.709,167.356,9.064,242.604-24.81c92.029-41.432,156.882-130.124,187.785-226.205
	C1701.73,538.513,1631.094,543.741,1567.859,534.472z"/>
<path style="fill:#8CB63D;" d="M1076.829,457.844c-14.56-19.634-33.553-37.244-58.256-52.385
	c-54.489-33.398-117.53-49.807-175.235-77.288c-57.7-27.481-113.486-71.123-129.34-133.038
	c-27.776,97.03-23.23,206.808,30.193,292.438c36.706,58.84,92.114,101.051,152.771,136.221c39.37-5.404,80.248-6.238,121.88-2.309
	c5.666,0.535,11.319,1.177,16.962,1.905c1.955,0.252,3.9,0.569,5.851,0.844c3.7,0.522,7.4,1.041,11.087,1.644
	c2.185,0.357,4.359,0.773,6.538,1.159c3.487,0.617,6.973,1.234,10.447,1.922c2.077,0.413,4.146,0.869,6.218,1.307
	c3.651,0.77,7.299,1.556,10.935,2.404c0.623,0.146,1.25,0.263,1.871,0.411c1.092,0.258,2.17,0.57,3.258,0.835
	c4.252,1.036,8.493,2.116,12.721,3.257c1.827,0.493,3.652,0.996,5.474,1.509c3.623,1.019,7.234,2.076,10.838,3.17
	c0.195-3.144,0.302-6.291,0.303-9.404C1121.38,566.086,1112.446,505.872,1076.829,457.844z"/>
<path style="fill:#D31744;" d="M1504.313,991.205c-4.843-11.995-10.144-23.849-15.849-35.51
	c-6.494,10.709-11.737,22.326-16.409,33.956c-14.83,36.982-24.979,75.851-30.104,115.369c-4.955,38.078-5.53,77.73-21.666,112.57
	c-25.53,55.204-84.185,86.414-140.579,109.165c-56.414,22.767-117.013,42.604-158.475,87.127
	c-40.76,43.764-56.453,104.402-75.942,160.958c-19.508,56.555-48.083,115.646-101.719,142.161
	c-42.734,21.15-93.242,17.347-140.375,10.117c-47.132-7.252-95.337-17.423-141.973-7.532c-8.536,1.827-17.783,5.413-27.42,10.479
	c20.916,53.693,45.788,105.746,78.358,153.403c28.219,41.293,66.373,77.422,113.349,94.55
	c96.516,35.155,172.657-32.024,232.039-99.783c98.002-111.876,197.685-223.072,294.051-337.057
	c76.979-91.064,144.482-193.529,170.709-303.936C1540.936,1158.8,1538.748,1076.376,1504.313,991.205z"/>
<path style="fill:#E94668;" d="M1242.218,950.325c-28.95-55.262-44.453-123.464-16.887-179.43
	c10.802-21.939,27.805-41.284,40.171-62.185c-5.082-3.236-10.217-6.382-15.386-9.466c-1.788-1.067-3.601-2.09-5.398-3.138
	c-3.413-1.989-6.831-3.963-10.278-5.884c-2.134-1.188-4.283-2.344-6.429-3.506c-3.182-1.722-6.37-3.422-9.578-5.085
	c-2.239-1.16-4.482-2.304-6.733-3.435c-3.234-1.625-6.484-3.211-9.744-4.775c-2.188-1.05-4.374-2.104-6.574-3.126
	c-3.604-1.675-7.234-3.291-10.868-4.891c-1.849-0.814-3.687-1.653-5.543-2.447c-7.559-3.233-15.19-6.267-22.866-9.168
	c-3.693-1.395-7.387-2.782-11.105-4.098c-1.018-0.361-2.045-0.692-3.066-1.047c-4.841-1.683-9.703-3.305-14.584-4.851
	c-0.427-0.136-0.858-0.262-1.286-0.397c0.009-0.007,0.019-0.014,0.029-0.021c-0.794-0.25-1.598-0.461-2.392-0.707
	c-4.482-1.392-8.982-2.719-13.494-3.989c-1.822-0.513-3.647-1.015-5.474-1.509c-4.228-1.141-8.469-2.223-12.721-3.257
	c-1.089-0.265-2.167-0.577-3.258-0.835c-0.621-0.148-1.248-0.266-1.871-0.411c-3.634-0.85-7.283-1.632-10.935-2.404
	c-2.072-0.438-4.141-0.894-6.218-1.307c-3.474-0.69-6.96-1.305-10.447-1.922c-2.179-0.386-4.353-0.802-6.538-1.159
	c-3.687-0.604-7.386-1.122-11.087-1.644c-1.951-0.275-3.896-0.592-5.851-0.844c-5.642-0.728-11.296-1.371-16.962-1.905
	c-41.631-3.929-82.509-3.094-121.88,2.309c-147.18,20.201-273.064,104.984-336.362,250.19
	c-67.186,154.092-67.313,335.87-35.844,498.528c1.708,8.839,3.581,17.655,5.543,26.457c0.206,0.924,0.402,1.85,0.61,2.774
	c1.896,8.398,3.908,16.779,6.002,25.148c0.319,1.275,0.637,2.55,0.96,3.825c0.426,1.681,0.833,3.366,1.267,5.047
	c1.846,7.167,3.756,14.316,5.724,21.452c0.003,0.001,0.005,0.002,0.007,0.002c0.245,0.89,0.511,1.776,0.759,2.665
	c2.722,9.821,5.548,19.62,8.447,29.402c0.988,3.329,2.004,6.65,3.007,9.974c2.295,7.602,4.615,15.194,6.983,22.773
	c1.096,3.507,2.192,7.013,3.301,10.516c2.493,7.884,5.006,15.757,7.542,23.619c0.926,2.869,1.844,5.744,2.772,8.611
	c3.304,10.195,6.621,20.376,9.934,30.535c27.654,5.247,54.787,12.616,85.057,18.358c71.333,13.564,130.299-29.803,160.487-92.765
	c24.248-50.606,30.923-107.476,42.967-162.273c12.044-54.816,31.562-111.205,74.027-147.878
	c79.025-68.258,209.768-46.482,286.606-117.164c18.451-16.943,33.004-39.861,33.764-64.921
	C1271.363,1000.566,1255.256,975.229,1242.218,950.325z"/>
<path style="fill:#EC6186;" d="M1123.699,642.668c-4.482-1.392-8.982-2.719-13.494-3.989c-1.822-0.513-3.647-1.015-5.474-1.509
	c-4.228-1.141-8.469-2.223-12.721-3.257c-1.089-0.265-2.167-0.577-3.258-0.835c-0.621-0.148-1.248-0.266-1.871-0.411
	c-3.634-0.85-7.283-1.632-10.935-2.404c-2.072-0.438-4.141-0.894-6.218-1.307c-3.474-0.69-6.96-1.305-10.447-1.922
	c-2.179-0.386-4.353-0.802-6.538-1.159c-3.687-0.604-7.386-1.122-11.087-1.644c-1.951-0.275-3.896-0.592-5.851-0.844
	c-5.642-0.728-11.296-1.371-16.962-1.905c-41.631-3.929-82.509-3.094-121.88,2.309c-147.18,20.201-273.064,104.984-336.362,250.19
	c-67.186,154.092-67.313,335.87-35.844,498.528c1.708,8.839,3.581,17.655,5.543,26.457c0.206,0.924,0.402,1.85,0.61,2.774
	c1.896,8.398,3.908,16.779,6.002,25.148c0.319,1.275,0.637,2.55,0.96,3.825c0.426,1.681,0.833,3.366,1.267,5.047
	c1.846,7.167,3.756,14.316,5.724,21.452c0.003,0.001,0.005,0.002,0.007,0.002c23.983,7.112,47.654,11.289,67.759,9.664
	c68.964-5.586,103.337-75.366,112.92-136.402c9.058-57.598,4.809-116.679,14.105-174.236c9.301-57.578,36.01-117.059,87.771-143.944
	c44.999-23.364,98.869-17.525,148.969-25.35c50.105-7.844,105.511-41.717,103.571-92.382c-0.95-24.943-15.888-46.86-24.556-70.273
	c-20.429-55.266-2.416-122.497,42.904-160.126c8.76-7.286,18.6-13.782,27.747-20.768c0.009-0.007,0.019-0.014,0.029-0.021
	C1125.297,643.125,1124.493,642.915,1123.699,642.668z"/>
<path style="fill:#FBBB39;" d="M648.615,939.896c11.065-3.133,19.937-11.362,27.425-20.083
	c19.065-22.193,32.161-49.457,37.578-78.209c7.615-40.456-26.709-21.586-42.27-6.828c-19.883,18.855-39.172,38.682-50.631,63.997
	c-4.399,9.718-7.444,21.389-2.309,30.738C623.943,939.59,637.556,943.027,648.615,939.896z"/>
<path style="fill:#FBBB39;" d="M863.495,1210.3c10.29-5.133,17.476-14.867,23.215-24.831c14.606-25.347,22.412-54.57,22.387-83.827
	c-0.034-41.167-30.256-16.248-42.801,1.142c-16.034,22.224-31.299,45.291-37.856,72.295c-2.514,10.363-3.338,22.4,3.444,30.631
	C839.197,1214.586,853.205,1215.433,863.495,1210.3z"/>
<path style="fill:#FBBB39;" d="M829.702,953.373c10.29-5.133,17.471-14.867,23.211-24.831c14.606-25.347,22.411-54.57,22.387-83.827
	c-0.034-41.167-30.256-16.249-42.801,1.143c-16.029,22.224-31.299,45.291-37.856,72.295c-2.514,10.363-3.338,22.399,3.445,30.631
	C805.4,957.657,819.412,958.506,829.702,953.373z"/>
<path style="fill:#FBBB39;" d="M1314.832,946.617c5.588,26.826,12.316,53.656,27.829,76.711c5.954,8.85,14.285,17.576,24.935,18.122
	c11.484,0.59,21.559-9.181,24.712-20.241c3.152-11.057,0.814-22.928-2.67-33.885c-8.857-27.881-25.169-53.357-46.782-73.074
	C1312.444,886.505,1310.456,925.623,1314.832,946.617z"/>
<path style="fill:#FBBB39;" d="M637.229,1205.255c10.29-5.133,17.472-14.867,23.211-24.831
	c14.606-25.347,22.411-54.573,22.387-83.829c-0.034-41.165-30.256-16.246-42.801,1.145c-16.029,22.224-31.299,45.288-37.856,72.292
	c-2.514,10.365-3.338,22.402,3.444,30.633C612.927,1209.54,626.94,1210.388,637.229,1205.255z"/>
<path style="fill:#FBBB39;" d="M986.472,1298.108c-8.268,26.124-15.547,52.811-13.321,80.509
	c0.858,10.633,3.844,22.321,12.863,28.014c9.725,6.139,23.293,2.558,31.459-5.539c8.166-8.098,11.942-19.591,14.276-30.85
	c5.934-28.646,4.195-58.845-4.989-86.621C1013.838,1244.534,992.941,1277.662,986.472,1298.108z"/>
<path style="fill:#FBBB39;" d="M1209.921,1463.508c-8.268,26.127-15.547,52.814-13.321,80.512
	c0.858,10.631,3.844,22.319,12.863,28.014c9.725,6.137,23.293,2.556,31.459-5.539c8.166-8.098,11.942-19.591,14.276-30.85
	c5.934-28.646,4.195-58.845-4.989-86.624C1237.287,1409.937,1216.391,1443.063,1209.921,1463.508z"/>
<path style="fill:#FBBB39;" d="M910.457,1529.742c-8.268,26.124-15.547,52.811-13.315,80.509
	c0.853,10.633,3.844,22.321,12.862,28.014c9.72,6.139,23.294,2.558,31.459-5.539c8.166-8.098,11.941-19.591,14.27-30.85
	c5.935-28.646,4.2-58.843-4.984-86.621C937.828,1476.168,916.927,1509.296,910.457,1529.742z"/>
<path style="fill:#FBBB39;" d="M839.948,1800.894c-26.47-31.527-33.622,6.982-32.068,28.37c1.988,27.33,5.101,54.816,17.423,79.722
	c4.731,9.559,11.835,19.313,22.319,21.264c11.303,2.105,22.587-6.246,27.177-16.789c4.584-10.543,3.839-22.619,1.841-33.941
	C871.548,1850.711,858.759,1823.301,839.948,1800.894z"/>
<path style="fill:#FBBB39;" d="M1049.219,1696.246c-12.896,24.178-24.926,49.087-27.79,76.728
	c-1.096,10.609-0.297,22.646,7.532,29.89c8.439,7.81,22.436,6.765,31.941,0.295c9.506-6.47,15.318-17.081,19.669-27.724
	c11.06-27.082,14.865-57.089,10.909-86.078C1085.906,1648.57,1059.314,1677.325,1049.219,1696.246z"/>
<path style="fill:#FBBB39;" d="M770.126,1494.882c9.52-6.451,15.352-17.05,19.722-27.686c11.123-27.057,14.986-57.057,11.089-86.054
	c-5.486-40.799-32.136-12.1-42.271,6.802c-12.95,24.149-25.028,49.035-27.951,76.667c-1.12,10.607-0.341,22.646,7.469,29.907
	C746.608,1502.346,760.611,1501.333,770.126,1494.882z"/>
<path style="fill:#FBBB39;" d="M1281.657,1160.327c-7.167,26.45-13.321,53.418-9.93,80.998c1.296,10.587,4.775,22.139,14.022,27.45
	c9.973,5.724,23.381,1.578,31.201-6.852c7.82-8.431,11.108-20.076,12.964-31.423c4.731-28.87,1.73-58.967-8.614-86.336
	C1306.753,1105.655,1287.26,1139.628,1281.657,1160.327z"/>
<path style="fill:#FBBB39;" d="M1099.602,987.122c-7.167,26.451-13.321,53.418-9.93,80.999c1.301,10.587,4.774,22.139,14.022,27.449
	c9.973,5.725,23.381,1.578,31.201-6.852c7.82-8.432,11.108-20.076,12.965-31.423c4.731-28.87,1.73-58.967-8.614-86.336
	C1124.698,932.449,1105.209,966.423,1099.602,987.122z"/>
<path style="fill:#70912C;" d="M1032.874,598.24c2.163,4.453,8.643,0.563,6.606-3.861c-18.575-40.325-53.64-59.89-91.839-74.928
	c-0.01-0.032,0-0.06-0.01-0.092c-12.024-37.905-13.983-73.508-17.817-112.599c-0.263-2.69-4.56-3.83-5.135-0.695
	c-6.558,35.91,3.004,77.576,17.088,111.116c-24.84-9.435-50.701-17.332-73.999-28.044c-26.631-12.245-46.626-28.558-62.667-47.597
	c-2.474-16.09-6.221-31.606-4.87-48.04c1.413-17.213,8.297-31.566,13.223-47.834c0.721-2.383-2.675-4.604-4.365-2.543
	c-17.64,21.459-22.235,59.404-12.695,87.316c-26.628-36.463-41.751-81.182-61.22-126.317c-2.212-5.135-9.935-1.371-8.736,3.683
	c14.011,59.101,42.052,124.851,90.631,164.307c-18.596-2.848-38.381-3.835-55.557-0.429c-1.593,0.314-1.69,3.089,0,3.318
	c11.942,1.617,24.054,0.801,36.088,1.376c9.361,0.445,18.681,1.354,28.009,2.201c1.383,0.986,2.714,2.046,4.128,2.99
	c48.224,32.195,115.58,37.408,162.796,70.163c-44.501-12.549-92.828-24.146-138.168-26.046c-2.967-0.124-3.518,4.377-0.697,5.135
	c48.623,13.028,100.393,19.919,150.01,29.534C1015.307,570.378,1025.305,582.638,1032.874,598.24z"/>
<path style="fill:#70912C;" d="M1258.169,674.742c12.209-5.604,24.51-9.87,36.881-13.145c20.344,11.83,42.597,20.474,63.688,30.94
	c18.704,9.282,36.77,21.452,56.726,27.703c1.983,0.622,3.581-2.097,2.046-3.515c-16.282-15.062-38.348-24.48-58.172-34.034
	c-18.008-8.68-36.709-17.606-56.045-23.127c49.777-11.367,100.723-7.231,152.08-5.396c26.034,15.799,53.875,32.285,82.615,42.074
	c1.905,0.648,2.689-1.998,1.276-3.028c-21.279-15.515-46.666-27.703-71.229-38.658c17.86,0.462,35.762,0.473,53.675-0.731
	c51.488-3.459,127.712-24.28,148.711-78.248c0.624-1.603-1.676-2.709-2.772-1.61c-26.582,26.614-49.505,48.745-86.757,60.124
	c-22.788,6.959-46.574,9.8-70.45,10.699c21.412-26.007,45.934-51.82,62.713-81.099c1.082-1.885-1.442-3.846-3.001-2.316
	c-24.365,23.869-43.308,54.509-63.318,82.019c-0.374,0.513-0.346,1.064-0.127,1.549c-14.582,0.426-29.181,0.167-43.591-0.328
	c-41.173-1.415-84.427-4.958-125.929-0.048c12.003-16.252,22.963-33.29,34.816-49.656c12.502-17.265,27.143-33.491,38.222-51.671
	c1.607-2.633-2.032-5.328-4.205-3.245c-29.252,28.054-54.95,68.922-73.052,105.075c-26.998,3.589-53.197,10.916-77.505,25.049
	C1252.434,671.882,1255.09,676.155,1258.169,674.742z"/>
<path style="fill:#5E782A;" d="M1155.582,589.519c90.489-115.004,124.667-282.034,29.286-405.162
	c-2.198-2.83-6.699,0.804-4.906,3.786c28.209,46.92,46.461,96.832,50.918,150.092c-14.898-14.324-30.388-28.847-47.625-40.212
	c-2.689-1.773-5.354,2.085-3.323,4.305c14.758,16.124,32.774,29.718,50.197,42.853c0.444,0.334,0.896,0.436,1.34,0.448
	c0.756,12.808,0.717,25.809-0.185,39.009c-2.413,35.304-11.53,69.266-25.314,101.677c-7.657-36.158-20.508-71.646-40.011-102.978
	c-0.652-1.047-2.616-0.365-2.1,0.884c15.139,36.435,28.661,72.266,38.526,110.404c-14.53,32.018-34.601,61.098-49.508,92.809
	C1152.118,589.056,1154.281,591.171,1155.582,589.519z"/>
<path style="fill:#5E782A;" d="M1240.313,414.426c8.77-14.95,16.692-30.378,26.373-44.79c9.647-14.358,21.349-27.154,31.108-41.415
	c1.106-1.617-1.164-4.034-2.791-2.789c-26.86,20.521-48.176,55.627-57.603,87.766
	C1236.887,414.94,1239.397,415.982,1240.313,414.426z"/>
</svg>
